PathFileType	4	(X/Y/Z)	Kaydara																																																																																																																									
DataRate	CameraRate	NumFrames	NumMarkers	Units	OrigDataRate	OrigDataStartFrame	OrigNumFrames																																																																																																																					
30	30	7	41	mm	30	63	167																																																																																																																					
Frame#	Time	PAIB_LFHD			PAIB_RFHD			PAIB_LBHD			PAIB_RBHD			PAIB_LFTShould			PAIB_RFTShould			PAIB_LRRShould			PAIB_RRRShould			PAIB_T10			PAIB_STRN			PAIB_TRUN			PAIB_LSHO			PAIB_LUPA			PAIB_LELB			PAIB_LFRM			PAIB_LWRA			PAIB_LWRB			PAIB_LFIN			PAIB_RSHO			PAIB_RUPA			PAIB_RELB			PAIB_RFRM			PAIB_RWRA			PAIB_RWRB			PAIB_RFIN			PAIB_LFWT			PAIB_RFWT			PAIB_LBWT			PAIB_RBWT			PAIB_LTHI			PAIB_LKNE			PAIB_LSHN			PAIB_LANK			PAIB_LHEE			PAIB_LTOE			PAIB_RTHI			PAIB_RKNE			PAIB_RSHN			PAIB_RANK			PAIB_RHEE			PAIB_RTOE		
		X1	Y1	Z1	X2	Y2	Z2	X3	Y3	Z3	X4	Y4	Z4	X5	Y5	Z5	X6	Y6	Z6	X7	Y7	Z7	X8	Y8	Z8	X9	Y9	Z9	X10	Y10	Z10	X11	Y11	Z11	X12	Y12	Z12	X13	Y13	Z13	X14	Y14	Z14	X15	Y15	Z15	X16	Y16	Z16	X17	Y17	Z17	X18	Y18	Z18	X19	Y19	Z19	X20	Y20	Z20	X21	Y21	Z21	X22	Y22	Z22	X23	Y23	Z23	X24	Y24	Z24	X25	Y25	Z25	X26	Y26	Z26	X27	Y27	Z27	X28	Y28	Z28	X29	Y29	Z29	X30	Y30	Z30	X31	Y31	Z31	X32	Y32	Z32	X33	Y33	Z33	X34	Y34	Z34	X35	Y35	Z35	X36	Y36	Z36	X37	Y37	Z37	X38	Y38	Z38	X39	Y39	Z39	X40	Y40	Z40	X41	Y41	Z41
																																																																																																																												
63	2.077	206.69466	1665.45746	-1775.20081	20.73543	1671.17584	-1777.39243	216.84256	1632.71576	-1901.63055	14.42568	1649.11575	-1892.61169	179.81142	1396.27625	-1798.95599	56.94868	1392.64343	-1789.04037	175.55073	1473.9566	-1936.24786	23.45394	1468.33664	-1914.3428	88.48565	1321.38977	-2021.62369	128.03481	1326.45218	-1763.49777	127.90287	1223.33542	-1750.41153	301.51831	1414.16245	-1891.31516	354.99031	1199.32243	-1959.40582	362.43141	1130.85159	-2022.47833	399.18144	1014.04594	-2018.23593	376.24737	876.41319	-1950.80551	393.5083	878.32466	-2027.11578	424.66633	830.28915	-1980.37903	-74.73873	1401.11191	-1830.79895	-146.1221	1230.05173	-1846.67542	-172.62939	1113.09052	-1836.11115	-176.23823	987.95494	-1766.38947	-95.37172	921.49605	-1650.92911	-167.36401	888.83492	-1685.23254	-149.90272	876.84402	-1613.09891	217.63916	954.13315	-1819.72183	-18.04171	939.42398	-1816.59912	161.94412	1001.96617	-2032.20749	15.83586	1009.98726	-2027.52823	233.08264	710.12779	-1948.76968	270.53724	533.23189	-1715.76019	243.91811	334.18644	-1706.88278	235.73658	147.84531	-1796.46149	174.66604	138.68837	-1837.54623	236.36509	105.2593	-1628.45398	-31.27775	723.50388	-2059.42703	-28.92392	471.44058	-2025.42419	40.12128	288.33536	-2044.03809	21.12531	104.27609	-2161.56601	82.53293	118.66147	-2211.75308	41.26727	77.24382	-1994.07837
64	2.11	207.12025	1659.99725	-1751.21429	21.1578	1665.86914	-1752.4205	216.54459	1626.99158	-1877.66296	14.02761	1643.48602	-1868.01941	180.52427	1390.66956	-1774.95392	57.72756	1386.62048	-1764.67087	175.35049	1469.52911	-1911.55869	23.41162	1463.31284	-1889.12643	88.14932	1317.62573	-1998.21625	129.12432	1320.37018	-1740.056	128.87747	1217.04834	-1727.95959	301.5976	1409.59717	-1868.0928	355.86449	1196.86707	-1940.80475	362.86873	1129.85085	-2005.37491	401.19751	1013.65395	-2004.81842	380.56389	873.74252	-1940.97961	396.84731	878.09799	-2017.38113	428.77392	828.92746	-1972.58453	-74.5556	1395.65231	-1807.05826	-145.90477	1224.95094	-1820.24765	-173.01767	1108.21571	-1807.95105	-174.64767	984.92256	-1734.37408	-91.60662	922.95547	-1618.00674	-163.78323	888.51387	-1650.24384	-145.23636	879.20029	-1577.93121	218.64941	949.4722	-1799.6817	-16.5266	933.34732	-1796.74866	163.3757	997.4572	-2012.05643	17.26369	1005.34378	-2007.10175	230.74055	706.67046	-1926.64063	270.0066	529.87171	-1695.43274	244.38305	334.17252	-1664.19281	236.19617	139.28186	-1731.21246	174.43151	125.50767	-1770.00595	238.7431	111.90617	-1558.57941	-29.91895	721.6748	-2043.41782	-27.99367	469.35741	-2016.8512	40.77754	286.44047	-2038.8501	20.97603	105.1428	-2160.52658	82.41905	120.66735	-2210.60593	41.44679	76.99791	-1994.01215
65	2.143	209.71811	1654.65775	-1726.61423	22.39363	1659.5546	-1725.6282	217.28949	1620.82153	-1851.65543	14.76397	1636.88583	-1841.07285	182.03503	1384.10461	-1748.918	59.29347	1380.00473	-1738.22311	176.31485	1464.51294	-1884.54803	24.41406	1458.07907	-1861.88553	88.77887	1313.65372	-1972.75024	130.66504	1313.3223	-1714.61716	130.45704	1209.9929	-1703.78464	302.7187	1404.37439	-1842.36053	357.78316	1193.90495	-1919.59702	364.6822	1128.10097	-1985.29602	404.49852	1012.56111	-1987.71881	386.64322	871.06407	-1926.57867	401.58157	877.34634	-2003.18481	434.38148	827.25418	-1959.90082	-72.5326	1389.4899	-1779.70123	-144.56568	1219.52499	-1792.40845	-172.20316	1102.966	-1778.98712	-172.39967	980.91606	-1702.75711	-87.74744	922.10144	-1585.8931	-159.90819	886.5992	-1616.5477	-140.65991	879.37248	-1544.04297	219.95443	944.23653	-1777.29095	-15.07902	927.69981	-1773.38562	165.61546	991.88919	-1989.9707	19.31946	999.71466	-1985.21332	229.73408	701.45515	-1903.36365	269.70877	524.89128	-1675.53375	244.03095	333.83755	-1624.85092	237.42058	134.25839	-1674.45419	175.46188	116.73363	-1711.59851	240.7259	120.05555	-1499.43771	-27.73467	720.00977	-2025.3801	-25.91225	467.10274	-2003.81149	42.04865	284.85638	-2032.24075	21.63811	106.65524	-2158.43719	82.5444	123.96319	-2208.6911	41.54555	76.77658	-1993.73825
66	2.177	212.06816	1648.75381	-1698.59329	24.78243	1653.18741	-1696.84296	219.24326	1614.31946	-1823.45459	16.67591	1630.01862	-1812.18964	184.59841	1376.94611	-1720.66147	61.92438	1372.85355	-1709.53445	178.50826	1459.43771	-1855.14893	26.44879	1452.91718	-1832.08572	90.45525	1310.00519	-1945.12772	133.33146	1305.69489	-1687.19421	133.08132	1202.29103	-1677.86575	304.91375	1398.73352	-1814.08478	361.12347	1190.32524	-1895.14206	368.03425	1125.72563	-1961.85745	409.11957	1010.62607	-1966.58417	393.82591	867.88383	-1907.55692	407.60853	875.69145	-1984.29489	441.79871	825.69099	-1943.16406	-69.48652	1383.0838	-1749.74365	-142.13518	1213.82225	-1762.88666	-170.24036	1097.37953	-1749.25049	-169.49135	976.02936	-1671.73309	-83.66064	918.75977	-1554.89944	-156.04786	882.68105	-1584.58405	-136.40968	876.61652	-1512.16049	221.78843	939.3824	-1752.16278	-13.16499	922.26692	-1749.08295	168.31787	986.06651	-1965.3746	21.97848	993.92586	-1961.01563	231.27821	695.20859	-1877.9837	269.01949	519.75842	-1652.53845	243.05725	332.18182	-1590.77057	238.42312	130.55051	-1630.41504	177.08645	111.09792	-1667.798	239.65761	123.23696	-1454.92462	-25.02179	719.67529	-2005.01984	-23.91237	466.23951	-1989.3309	42.56752	284.35671	-2024.55963	21.80037	110.28622	-2156.30096	82.94854	129.18624	-2206.00632	41.31861	76.64849	-1993.41919
67	2.21	216.29078	1644.12292	-1668.7735	28.24822	1647.94281	-1666.25839	222.46649	1608.47687	-1793.02322	19.89419	1624.02252	-1781.30936	188.2333	1370.82748	-1689.86664	65.83127	1366.70135	-1678.47153	182.06921	1454.92432	-1823.55026	29.92774	1448.53577	-1800.08362	93.4643	1306.98318	-1915.23804	137.46191	1299.46991	-1657.34711	136.80876	1195.54214	-1649.10461	308.5256	1393.73428	-1783.59497	365.48809	1186.30333	-1866.76239	373.00091	1122.77298	-1934.34631	415.08301	1008.14651	-1940.65826	401.41045	864.59518	-1883.43414	414.78203	873.5601	-1960.08057	449.78378	823.57834	-1919.73831	-65.02454	1377.36633	-1717.76062	-138.53849	1208.60245	-1731.74347	-167.00745	1092.3938	-1718.67706	-166.05976	970.70877	-1641.71616	-79.55548	912.79274	-1525.69168	-152.37413	877.07458	-1554.95255	-132.42197	870.96832	-1482.63214	224.2271	935.37155	-1723.82935	-10.75787	917.58072	-1722.32224	172.22622	981.60477	-1937.40265	25.85289	989.68369	-1933.60764	233.99773	690.92239	-1849.23065	268.03669	515.7085	-1625.67307	240.51868	327.59071	-1563.13904	238.59673	126.0848	-1602.09351	179.13637	106.29307	-1642.07916	233.992	117.80399	-1427.2934	-21.97565	720.55069	-1982.51022	-23.00904	466.81667	-1975.45258	42.78111	285.45593	-2015.44449	21.05889	116.70431	-2154.20456	82.61515	137.08281	-2202.33734	41.02019	76.5298	-1993.03802
68	2.243	220.61262	1641.16211	-1636.48926	33.10934	1644.70078	-1634.00131	227.16038	1604.67651	-1760.51987	24.61068	1619.897	-1748.75793	193.69816	1366.7601	-1656.84235	71.11579	1362.79739	-1645.02884	187.03701	1451.78391	-1790.08881	34.77924	1445.87326	-1766.34964	97.92094	1304.77844	-1882.59232	142.46336	1295.09827	-1624.5018	141.71701	1191.24847	-1617.1991	313.23694	1390.13428	-1750.69382	371.07548	1183.59779	-1835.22186	378.87489	1120.32669	-1902.84698	421.74648	1006.26976	-1910.06561	409.09702	862.21283	-1853.78525	422.53864	871.86989	-1930.35156	458.10894	822.12555	-1890.37506	-59.44309	1373.44421	-1683.75061	-133.34735	1205.09743	-1699.37653	-162.2473	1089.0451	-1687.56363	-162.1977	966.13129	-1613.18069	-75.85921	904.74922	-1498.98468	-149.19071	870.56076	-1528.45078	-128.87549	862.9718	-1456.45676	227.20144	932.22717	-1692.41852	-7.75489	913.79959	-1692.1431	177.67534	979.80019	-1906.0376	31.23468	987.64252	-1902.92587	236.65144	689.54292	-1817.69592	267.08469	511.6143	-1594.70306	237.3053	320.75462	-1542.92999	235.9639	122.18087	-1592.98615	177.91157	105.88375	-1636.18164	226.57555	97.21611	-1418.71231	-17.87583	722.46048	-1957.10876	-21.69243	469.2157	-1959.12018	42.628	288.06709	-2003.94714	19.33381	125.30513	-2150.32928	81.18959	148.06202	-2197.11517	40.79987	76.53671	-1992.6384
69	2.277	226.0162	1641.32187	-1602.37885	38.66217	1644.24683	-1600.22568	233.09271	1604.00803	-1726.03226	30.4954	1618.68011	-1714.72992	199.97126	1365.5574	-1621.63498	77.31973	1362.01569	-1609.21082	192.97924	1451.44775	-1754.41864	40.58191	1446.01929	-1730.26627	103.16087	1304.91043	-1847.00226	149.05717	1294.02878	-1589.7644	147.836	1189.9749	-1582.46262	318.9382	1388.7767	-1715.19897	377.33456	1182.87285	-1800.01877	385.70095	1119.93378	-1867.80136	429.11259	1005.88341	-1874.74182	417.02801	861.72043	-1818.44788	430.50125	871.5316	-1895.13687	466.24538	821.95747	-1855.1683	-53.03946	1372.63702	-1647.51236	-127.07351	1204.32564	-1666.07758	-156.05818	1088.39325	-1657.00897	-157.77665	963.16864	-1587.27936	-72.35519	895.9687	-1475.86166	-146.36329	864.24835	-1506.35574	-126.12775	853.80707	-1434.73267	232.12986	932.17712	-1659.32434	-3.4356	911.76109	-1658.94226	183.44059	981.48239	-1872.94342	37.0084	988.07152	-1869.45084	240.62479	690.87555	-1785.33035	266.01084	512.19433	-1559.99359	237.26639	317.38411	-1526.10901	234.7501	122.28256	-1589.22531	176.84143	108.54037	-1633.17947	225.15963	86.87375	-1416.14456	-12.30123	724.63646	-1927.20047	-19.27292	471.89461	-1934.61609	42.53066	291.88395	-1988.40546	16.48525	137.49807	-2143.97125	78.61577	163.08861	-2188.74237	40.39909	76.35756	-1992.07748
